<mxfile host="app.diagrams.net" agent="Mozilla/5.0 (Windows NT 10.0; Win64; x64) AppleWebKit/537.36 (KHTML, like Gecko) Chrome/140.0.0.0 Safari/537.36" version="28.2.0">
  <diagram name="Página-1" id="C2McmHTMcghkWaj2xz4Y">
    <mxGraphModel grid="1" page="1" gridSize="10" guides="1" tooltips="1" connect="1" arrows="1" fold="1" pageScale="1" pageWidth="827" pageHeight="1169" math="0" shadow="0">
      <root>
        <mxCell id="0" />
        <mxCell id="1" parent="0" />
        <mxCell id="D2xvjAlod0kNGlaXnsn7-1" value="Cliente&amp;nbsp;" style="swimlane;whiteSpace=wrap;html=1;" vertex="1" parent="1">
          <mxGeometry x="130" y="100" width="220" height="1130" as="geometry" />
        </mxCell>
        <mxCell id="D2xvjAlod0kNGlaXnsn7-6" value="" style="edgeStyle=orthogonalEdgeStyle;rounded=0;orthogonalLoop=1;jettySize=auto;html=1;" edge="1" parent="D2xvjAlod0kNGlaXnsn7-1" source="D2xvjAlod0kNGlaXnsn7-4" target="D2xvjAlod0kNGlaXnsn7-5">
          <mxGeometry relative="1" as="geometry" />
        </mxCell>
        <mxCell id="D2xvjAlod0kNGlaXnsn7-4" value="" style="ellipse;whiteSpace=wrap;html=1;aspect=fixed;" vertex="1" parent="D2xvjAlod0kNGlaXnsn7-1">
          <mxGeometry x="80" y="50" width="30" height="30" as="geometry" />
        </mxCell>
        <mxCell id="D2xvjAlod0kNGlaXnsn7-8" value="" style="edgeStyle=orthogonalEdgeStyle;rounded=0;orthogonalLoop=1;jettySize=auto;html=1;" edge="1" parent="D2xvjAlod0kNGlaXnsn7-1" source="D2xvjAlod0kNGlaXnsn7-5" target="D2xvjAlod0kNGlaXnsn7-7">
          <mxGeometry relative="1" as="geometry" />
        </mxCell>
        <mxCell id="D2xvjAlod0kNGlaXnsn7-5" value="Completar formulario de cotización y adjuntar foto" style="rounded=1;whiteSpace=wrap;html=1;" vertex="1" parent="D2xvjAlod0kNGlaXnsn7-1">
          <mxGeometry x="35" y="145" width="120" height="60" as="geometry" />
        </mxCell>
        <mxCell id="D2xvjAlod0kNGlaXnsn7-7" value="Envío&amp;nbsp; de solicitud" style="rounded=1;whiteSpace=wrap;html=1;" vertex="1" parent="D2xvjAlod0kNGlaXnsn7-1">
          <mxGeometry x="35" y="240" width="120" height="60" as="geometry" />
        </mxCell>
        <mxCell id="D2xvjAlod0kNGlaXnsn7-15" value="Mostrar errores" style="rounded=1;whiteSpace=wrap;html=1;" vertex="1" parent="D2xvjAlod0kNGlaXnsn7-1">
          <mxGeometry x="50" y="385" width="120" height="60" as="geometry" />
        </mxCell>
        <mxCell id="D2xvjAlod0kNGlaXnsn7-43" style="edgeStyle=orthogonalEdgeStyle;rounded=0;orthogonalLoop=1;jettySize=auto;html=1;" edge="1" parent="D2xvjAlod0kNGlaXnsn7-1" source="D2xvjAlod0kNGlaXnsn7-40" target="D2xvjAlod0kNGlaXnsn7-42">
          <mxGeometry relative="1" as="geometry" />
        </mxCell>
        <mxCell id="D2xvjAlod0kNGlaXnsn7-40" value="Revisar propuesta/muestra" style="rounded=1;whiteSpace=wrap;html=1;" vertex="1" parent="D2xvjAlod0kNGlaXnsn7-1">
          <mxGeometry x="50" y="900" width="120" height="60" as="geometry" />
        </mxCell>
        <mxCell id="D2xvjAlod0kNGlaXnsn7-42" value="" style="ellipse;whiteSpace=wrap;html=1;aspect=fixed;" vertex="1" parent="D2xvjAlod0kNGlaXnsn7-1">
          <mxGeometry x="90" y="820" width="40" height="40" as="geometry" />
        </mxCell>
        <mxCell id="D2xvjAlod0kNGlaXnsn7-44" value="" style="ellipse;whiteSpace=wrap;html=1;aspect=fixed;" vertex="1" parent="D2xvjAlod0kNGlaXnsn7-1">
          <mxGeometry x="95" y="825" width="30" height="30" as="geometry" />
        </mxCell>
        <mxCell id="D2xvjAlod0kNGlaXnsn7-2" value="Sistema Web" style="swimlane;whiteSpace=wrap;html=1;" vertex="1" parent="1">
          <mxGeometry x="350" y="100" width="220" height="1130" as="geometry" />
        </mxCell>
        <mxCell id="D2xvjAlod0kNGlaXnsn7-12" value="" style="edgeStyle=orthogonalEdgeStyle;rounded=0;orthogonalLoop=1;jettySize=auto;html=1;" edge="1" parent="D2xvjAlod0kNGlaXnsn7-2" source="D2xvjAlod0kNGlaXnsn7-9" target="D2xvjAlod0kNGlaXnsn7-11">
          <mxGeometry relative="1" as="geometry" />
        </mxCell>
        <mxCell id="D2xvjAlod0kNGlaXnsn7-9" value="Validar datos&amp;nbsp;" style="rounded=1;whiteSpace=wrap;html=1;" vertex="1" parent="D2xvjAlod0kNGlaXnsn7-2">
          <mxGeometry x="50" y="240" width="120" height="60" as="geometry" />
        </mxCell>
        <mxCell id="D2xvjAlod0kNGlaXnsn7-23" value="" style="edgeStyle=orthogonalEdgeStyle;rounded=0;orthogonalLoop=1;jettySize=auto;html=1;" edge="1" parent="D2xvjAlod0kNGlaXnsn7-2" source="D2xvjAlod0kNGlaXnsn7-11" target="D2xvjAlod0kNGlaXnsn7-22">
          <mxGeometry relative="1" as="geometry" />
        </mxCell>
        <mxCell id="D2xvjAlod0kNGlaXnsn7-11" value="¿Datos validos?" style="rhombus;whiteSpace=wrap;html=1;rounded=1;" vertex="1" parent="D2xvjAlod0kNGlaXnsn7-2">
          <mxGeometry x="50" y="370" width="120" height="90" as="geometry" />
        </mxCell>
        <mxCell id="D2xvjAlod0kNGlaXnsn7-25" value="" style="edgeStyle=orthogonalEdgeStyle;rounded=0;orthogonalLoop=1;jettySize=auto;html=1;" edge="1" parent="D2xvjAlod0kNGlaXnsn7-2" source="D2xvjAlod0kNGlaXnsn7-22" target="D2xvjAlod0kNGlaXnsn7-24">
          <mxGeometry relative="1" as="geometry" />
        </mxCell>
        <mxCell id="D2xvjAlod0kNGlaXnsn7-22" value="Guardar arte en storage" style="whiteSpace=wrap;html=1;rounded=1;" vertex="1" parent="D2xvjAlod0kNGlaXnsn7-2">
          <mxGeometry x="50" y="500" width="120" height="60" as="geometry" />
        </mxCell>
        <mxCell id="D2xvjAlod0kNGlaXnsn7-27" value="" style="edgeStyle=orthogonalEdgeStyle;rounded=0;orthogonalLoop=1;jettySize=auto;html=1;" edge="1" parent="D2xvjAlod0kNGlaXnsn7-2" source="D2xvjAlod0kNGlaXnsn7-24" target="D2xvjAlod0kNGlaXnsn7-26">
          <mxGeometry relative="1" as="geometry" />
        </mxCell>
        <mxCell id="D2xvjAlod0kNGlaXnsn7-24" value="Crear solicitud de cotización" style="rounded=1;whiteSpace=wrap;html=1;" vertex="1" parent="D2xvjAlod0kNGlaXnsn7-2">
          <mxGeometry x="50" y="600" width="120" height="60" as="geometry" />
        </mxCell>
        <mxCell id="D2xvjAlod0kNGlaXnsn7-29" value="" style="edgeStyle=orthogonalEdgeStyle;rounded=0;orthogonalLoop=1;jettySize=auto;html=1;" edge="1" parent="D2xvjAlod0kNGlaXnsn7-2" source="D2xvjAlod0kNGlaXnsn7-26" target="D2xvjAlod0kNGlaXnsn7-28">
          <mxGeometry relative="1" as="geometry" />
        </mxCell>
        <mxCell id="D2xvjAlod0kNGlaXnsn7-26" value="Calcular precio (área, colores, cantidad, volumen)" style="rounded=1;whiteSpace=wrap;html=1;" vertex="1" parent="D2xvjAlod0kNGlaXnsn7-2">
          <mxGeometry x="50" y="700" width="120" height="60" as="geometry" />
        </mxCell>
        <mxCell id="D2xvjAlod0kNGlaXnsn7-28" value="Notificar a Admin" style="rounded=1;whiteSpace=wrap;html=1;" vertex="1" parent="D2xvjAlod0kNGlaXnsn7-2">
          <mxGeometry x="50" y="790" width="120" height="60" as="geometry" />
        </mxCell>
        <mxCell id="D2xvjAlod0kNGlaXnsn7-3" value="Administrador" style="swimlane;whiteSpace=wrap;html=1;" vertex="1" parent="1">
          <mxGeometry x="570" y="100" width="220" height="1130" as="geometry" />
        </mxCell>
        <mxCell id="D2xvjAlod0kNGlaXnsn7-39" value="" style="edgeStyle=orthogonalEdgeStyle;rounded=0;orthogonalLoop=1;jettySize=auto;html=1;" edge="1" parent="D2xvjAlod0kNGlaXnsn7-3" source="D2xvjAlod0kNGlaXnsn7-31" target="D2xvjAlod0kNGlaXnsn7-38">
          <mxGeometry relative="1" as="geometry" />
        </mxCell>
        <mxCell id="D2xvjAlod0kNGlaXnsn7-31" value="Revisar solicitud" style="rounded=1;whiteSpace=wrap;html=1;" vertex="1" parent="D2xvjAlod0kNGlaXnsn7-3">
          <mxGeometry x="70" y="790" width="120" height="60" as="geometry" />
        </mxCell>
        <mxCell id="D2xvjAlod0kNGlaXnsn7-38" value="Enviar propuesta (Precio, condiciones, plazos)" style="rounded=1;whiteSpace=wrap;html=1;" vertex="1" parent="D2xvjAlod0kNGlaXnsn7-3">
          <mxGeometry x="70" y="900" width="120" height="60" as="geometry" />
        </mxCell>
        <mxCell id="D2xvjAlod0kNGlaXnsn7-10" value="" style="edgeStyle=orthogonalEdgeStyle;rounded=0;orthogonalLoop=1;jettySize=auto;html=1;" edge="1" parent="1" source="D2xvjAlod0kNGlaXnsn7-7" target="D2xvjAlod0kNGlaXnsn7-9">
          <mxGeometry relative="1" as="geometry" />
        </mxCell>
        <mxCell id="D2xvjAlod0kNGlaXnsn7-20" style="edgeStyle=orthogonalEdgeStyle;rounded=0;orthogonalLoop=1;jettySize=auto;html=1;entryX=1;entryY=0.5;entryDx=0;entryDy=0;" edge="1" parent="1" source="D2xvjAlod0kNGlaXnsn7-11" target="D2xvjAlod0kNGlaXnsn7-15">
          <mxGeometry relative="1" as="geometry" />
        </mxCell>
        <mxCell id="D2xvjAlod0kNGlaXnsn7-21" value="no" style="edgeLabel;html=1;align=center;verticalAlign=middle;resizable=0;points=[];" connectable="0" vertex="1" parent="D2xvjAlod0kNGlaXnsn7-20">
          <mxGeometry x="-0.2291" y="2" relative="1" as="geometry">
            <mxPoint as="offset" />
          </mxGeometry>
        </mxCell>
        <mxCell id="D2xvjAlod0kNGlaXnsn7-32" value="" style="edgeStyle=orthogonalEdgeStyle;rounded=0;orthogonalLoop=1;jettySize=auto;html=1;" edge="1" parent="1" source="D2xvjAlod0kNGlaXnsn7-28" target="D2xvjAlod0kNGlaXnsn7-31">
          <mxGeometry relative="1" as="geometry" />
        </mxCell>
        <mxCell id="D2xvjAlod0kNGlaXnsn7-41" style="edgeStyle=orthogonalEdgeStyle;rounded=0;orthogonalLoop=1;jettySize=auto;html=1;" edge="1" parent="1" source="D2xvjAlod0kNGlaXnsn7-38" target="D2xvjAlod0kNGlaXnsn7-40">
          <mxGeometry relative="1" as="geometry" />
        </mxCell>
      </root>
    </mxGraphModel>
  </diagram>
</mxfile>
